STARTFONT 2.1
FONT -Adobe-ITC Zapf Dingbats-Medium-R-Normal--19-140-100-100-P-142-ADOBE-FONTSPECIFIC
SIZE 14 100 100
FONTBOUNDINGBOX 18 19 0 -4

STARTPROPERTIES 26
_DEC_DEVICE_FONTNAMES "PS=ZapfDingbats"
FONTNAME_REGISTRY ""
FAMILY_NAME "ITC Zapf Dingbats"
FOUNDRY "Adobe"
WEIGHT_NAME "Medium"
SLANT "R"
SETWIDTH_NAME "Normal"
ADD_STYLE_NAME ""
PIXEL_SIZE 19
POINT_SIZE 140
RESOLUTION_X 100
RESOLUTION_Y 100
SPACING "P"
AVERAGE_WIDTH 142
CHARSET_REGISTRY "ADOBE"
CHARSET_ENCODING "FONTSPECIFIC"
CHARSET_COLLECTIONS "FONTSPECIFIC"
FULL_NAME "ITC Zapf Dingbats"
COPYRIGHT "Copyright (c) 1991 Adobe Systems, Inc."
CAP_HEIGHT 14
X_HEIGHT 10
WEIGHT 10
QUAD_WIDTH 11
DEFAULT_CHAR 0
FONT_DESCENT 4
FONT_ASCENT 15
ENDPROPERTIES

CHARS 188

STARTCHAR space
ENCODING 32
SWIDTH 486 0
DWIDTH 9 0
BBX 1 1 0 0
BITMAP
00
ENDCHAR

STARTCHAR a1
ENCODING 33
SWIDTH 974 0
DWIDTH 19 0
BBX 17 11 1 1
BITMAP
380000
440000
440000
3C0000
060000
027C00
03FF00
7FFF80
88E000
887000
703800
ENDCHAR

STARTCHAR a2
ENCODING 34
SWIDTH 961 0
DWIDTH 19 0
BBX 16 11 1 1
BITMAP
7000
8807
883E
7CF8
07E0
07C0
0CF0
7878
881E
8807
7000
ENDCHAR

STARTCHAR a202
ENCODING 35
SWIDTH 974 0
DWIDTH 19 0
BBX 17 11 1 1
BITMAP
703800
887000
88E000
7FFF80
03FF00
027C00
060000
3C0000
440000
440000
380000
ENDCHAR

STARTCHAR a3
ENCODING 36
SWIDTH 980 0
DWIDTH 19 0
BBX 17 13 1 0
BITMAP
780000
CC0000
841F80
847180
CF8600
7FD800
016000
7FD800
CFC600
846180
841F80
CC0000
780000
ENDCHAR

STARTCHAR a4
ENCODING 37
SWIDTH 719 0
DWIDTH 14 0
BBX 12 8 1 3
BITMAP
7FE0
FFF0
E970
CF30
1980
30C0
39C0
3FC0
ENDCHAR

STARTCHAR a5
ENCODING 38
SWIDTH 789 0
DWIDTH 15 0
BBX 13 13 1 0
BITMAP
0F80
3860
6330
4790
C798
8E08
8C08
9C08
DE18
5E10
1030
18E0
0F80
ENDCHAR

STARTCHAR a119
ENCODING 39
SWIDTH 790 0
DWIDTH 15 0
BBX 13 13 1 0
BITMAP
0F80
3060
6730
4710
8508
8708
8F88
B768
BFE8
B068
4010
3060
0F80
ENDCHAR

STARTCHAR a118
ENCODING 40
SWIDTH 791 0
DWIDTH 15 0
BBX 13 12 1 1
BITMAP
0C00
0E00
0600
8700
C380
FFF8
FFF8
C380
8700
0600
0E00
0C00
ENDCHAR

STARTCHAR a117
ENCODING 41
SWIDTH 690 0
DWIDTH 14 0
BBX 12 9 1 2
BITMAP
FFF0
C030
F0F0
9F90
8610
9F90
F0F0
C030
FFF0
ENDCHAR

STARTCHAR a11
ENCODING 42
SWIDTH 960 0
DWIDTH 18 0
BBX 16 8 1 2
BITMAP
07FE
5FFF
9FFE
BFE0
BFE0
BFE0
9FC0
47C0
ENDCHAR

STARTCHAR a12
ENCODING 43
SWIDTH 939 0
DWIDTH 18 0
BBX 16 9 1 2
BITMAP
03FE
FEC1
D07E
D030
D3D8
D138
D9C8
F798
00E0
ENDCHAR

STARTCHAR a13
ENCODING 44
SWIDTH 549 0
DWIDTH 11 0
BBX 9 13 1 0
BITMAP
3180
2A80
2A80
2D00
2500
3F00
5180
6C80
B480
D880
6880
2100
1E00
ENDCHAR

STARTCHAR a14
ENCODING 45
SWIDTH 855 0
DWIDTH 18 0
BBX 16 12 1 1
BITMAP
0030
0070
07E0
0DC0
1BE0
377F
2F09
5F09
5009
F819
CFE9
000F
ENDCHAR

STARTCHAR a15
ENCODING 46
SWIDTH 911 0
DWIDTH 15 0
BBX 13 13 1 0
BITMAP
3C00
4E00
AB00
9D80
F2C0
D160
68B0
3458
1A28
0D18
06A8
0358
01F8
ENDCHAR

STARTCHAR a16
ENCODING 47
SWIDTH 933 0
DWIDTH 18 0
BBX 16 9 1 2
BITMAP
7FF0
A028
9FF4
D012
D013
D012
9FF4
A028
7FF0
ENDCHAR

STARTCHAR a105
ENCODING 48
SWIDTH 667 0
DWIDTH 15 0
BBX 13 13 1 0
BITMAP
01F8
0358
06A8
0D18
1A28
3458
68B0
D160
F2C0
9D80
AB00
4E00
3C00
ENDCHAR

STARTCHAR a17
ENCODING 49
SWIDTH 945 0
DWIDTH 17 0
BBX 15 9 1 2
BITMAP
00E0
0130
7918
876C
807E
876C
7918
0130
00E0
ENDCHAR

STARTCHAR a18
ENCODING 50
SWIDTH 974 0
DWIDTH 18 0
BBX 16 9 1 2
BITMAP
00E0
01F0
7DF8
FF9E
FF03
FF9E
7DF8
01F0
00E0
ENDCHAR

STARTCHAR a19
ENCODING 51
SWIDTH 755 0
DWIDTH 15 0
BBX 13 13 1 0
BITMAP
0030
0078
00F8
00F0
01E0
03C0
03C0
4780
EF00
FF00
FE00
7E00
3800
ENDCHAR

STARTCHAR a20
ENCODING 52
SWIDTH 846 0
DWIDTH 16 0
BBX 14 12 1 0
BITMAP
001C
003C
007C
70F8
71F0
F3E0
F7C0
FF80
FF00
FE00
FC00
7800
ENDCHAR

STARTCHAR a21
ENCODING 53
SWIDTH 762 0
DWIDTH 14 0
BBX 12 12 1 0
BITMAP
C030
E070
70E0
39C0
1F80
0F00
0F00
1F80
39C0
70E0
E070
C030
ENDCHAR

STARTCHAR a22
ENCODING 54
SWIDTH 761 0
DWIDTH 15 0
BBX 13 13 1 0
BITMAP
3060
78F0
FDF8
FFF8
7FF0
3FE0
1FC0
3FE0
7FF0
FFF8
FDF8
78F0
3060
ENDCHAR

STARTCHAR a23
ENCODING 55
SWIDTH 571 0
DWIDTH 12 0
BBX 10 13 1 0
BITMAP
00C0
31C0
3B80
1B00
1E00
0E00
1E00
3F00
3B00
7380
7380
E100
C000
ENDCHAR

STARTCHAR a24
ENCODING 56
SWIDTH 677 0
DWIDTH 12 0
BBX 10 13 1 0
BITMAP
0080
61C0
73C0
7F80
3F80
3F00
1E00
3E00
7F00
FF80
F780
E300
4000
ENDCHAR

STARTCHAR a25
ENCODING 57
SWIDTH 763 0
DWIDTH 15 0
BBX 13 13 1 0
BITMAP
0F80
0880
0A80
0A80
FAF8
8208
BFE8
8208
FAF8
0A80
0A80
0880
0F80
ENDCHAR

STARTCHAR a26
ENCODING 58
SWIDTH 760 0
DWIDTH 14 0
BBX 12 12 1 0
BITMAP
0F00
0F00
0F00
0F00
FFF0
FFF0
FFF0
FFF0
0F00
0F00
0F00
0F00
ENDCHAR

STARTCHAR a27
ENCODING 59
SWIDTH 759 0
DWIDTH 14 0
BBX 12 12 1 0
BITMAP
0600
0600
0600
0600
0600
F9F0
F9F0
0600
0600
0600
0600
0600
ENDCHAR

STARTCHAR a28
ENCODING 60
SWIDTH 754 0
DWIDTH 14 0
BBX 12 12 1 0
BITMAP
0F00
0F00
0F00
0F00
F0F0
F0F0
F0F0
F0F0
0F00
0F00
0F00
0F00
ENDCHAR

STARTCHAR a6
ENCODING 61
SWIDTH 494 0
DWIDTH 10 0
BBX 8 13 1 0
BITMAP
18
18
18
FF
FF
18
18
18
18
18
18
18
18
ENDCHAR

STARTCHAR a7
ENCODING 62
SWIDTH 552 0
DWIDTH 12 0
BBX 10 13 1 0
BITMAP
1C00
1600
1600
F780
80C0
F7C0
77C0
1600
1600
1600
1600
1E00
0E00
ENDCHAR

STARTCHAR a8
ENCODING 63
SWIDTH 537 0
DWIDTH 12 0
BBX 10 13 1 0
BITMAP
1E00
1E00
1E00
FFC0
FFC0
FFC0
FFC0
1E00
1E00
1E00
1E00
1E00
1E00
ENDCHAR

STARTCHAR a9
ENCODING 64
SWIDTH 577 0
DWIDTH 13 0
BBX 11 11 1 0
BITMAP
3F80
1F00
8E20
C460
E4E0
FFE0
E4E0
C460
8E20
1F00
3F80
ENDCHAR

STARTCHAR a10
ENCODING 65
SWIDTH 692 0
DWIDTH 14 0
BBX 12 13 1 0
BITMAP
0600
0600
0900
FFF0
D1B0
70E0
2040
70E0
D1B0
FFF0
0900
0600
0600
ENDCHAR

STARTCHAR a29
ENCODING 66
SWIDTH 786 0
DWIDTH 15 0
BBX 13 13 1 0
BITMAP
0200
0700
0700
0700
0200
7270
FFF8
7270
0200
0700
0700
0700
0200
ENDCHAR

STARTCHAR a30
ENCODING 67
SWIDTH 788 0
DWIDTH 15 0
BBX 13 13 1 0
BITMAP
0700
0700
0700
0200
0200
E738
FFF8
E738
0200
0200
0700
0700
0700
ENDCHAR

STARTCHAR a31
ENCODING 68
SWIDTH 788 0
DWIDTH 15 0
BBX 13 13 1 0
BITMAP
0700
0F80
0F80
0F80
7770
FAF8
FFF8
FAF8
7770
0F80
0F80
0F80
0700
ENDCHAR

STARTCHAR a32
ENCODING 69
SWIDTH 790 0
DWIDTH 15 0
BBX 13 13 1 0
BITMAP
0700
0700
0F80
0F80
3260
F278
FFF8
F278
3260
0F80
0F80
0700
0700
ENDCHAR

STARTCHAR a33
ENCODING 70
SWIDTH 793 0
DWIDTH 15 0
BBX 13 13 1 0
BITMAP
0200
0700
0700
0F80
1FC0
7FF0
FFF8
7FF0
1FC0
0F80
0700
0700
0200
ENDCHAR

STARTCHAR a34
ENCODING 71
SWIDTH 794 0
DWIDTH 15 0
BBX 13 13 1 0
BITMAP
0200
0700
0500
0D80
1DC0
78F0
C018
78F0
1DC0
0D80
0700
0700
0200
ENDCHAR

STARTCHAR a35
ENCODING 72
SWIDTH 816 0
DWIDTH 16 0
BBX 14 13 1 0
BITMAP
0300
0300
0780
0780
0780
FFFC
7FF8
1FE0
0FC0
1FE0
1FE0
3CF0
3030
ENDCHAR

STARTCHAR a36
ENCODING 73
SWIDTH 823 0
DWIDTH 17 0
BBX 15 14 1 0
BITMAP
0100
0100
0280
0280
0440
FC7E
4004
3018
1830
1010
1390
26C8
2C68
3018
ENDCHAR

STARTCHAR a37
ENCODING 74
SWIDTH 789 0
DWIDTH 15 0
BBX 13 13 1 0
BITMAP
0F80
3DE0
7DF0
78F0
F8F8
8008
E038
F078
E038
6730
4F90
3FE0
0F80
ENDCHAR

STARTCHAR a38
ENCODING 75
SWIDTH 841 0
DWIDTH 16 0
BBX 14 13 1 0
BITMAP
0300
0300
0780
0780
0780
FCFC
7878
1860
0CC0
1FE0
1FE0
3CF0
3030
ENDCHAR

STARTCHAR a39
ENCODING 76
SWIDTH 823 0
DWIDTH 17 0
BBX 15 14 1 0
BITMAP
0100
0100
0280
0280
0440
FC7E
47C4
27C8
1FF0
1390
1110
26C8
2C68
3018
ENDCHAR

STARTCHAR a40
ENCODING 77
SWIDTH 833 0
DWIDTH 17 0
BBX 15 14 1 0
BITMAP
0100
0100
0280
0380
0540
FFFE
5FF4
2FE8
1FF0
1FF0
1BB0
36D8
2C68
3018
ENDCHAR

STARTCHAR a41
ENCODING 78
SWIDTH 816 0
DWIDTH 17 0
BBX 15 14 1 0
BITMAP
0100
0100
0280
0280
0540
FD7E
4BA4
37D8
1BB0
16D0
1BB0
26C8
2C68
3018
ENDCHAR

STARTCHAR a42
ENCODING 79
SWIDTH 831 0
DWIDTH 17 0
BBX 15 14 1 0
BITMAP
0100
0100
0380
0380
05C0
FDFE
7FDC
27F8
1FF0
1DD0
1AD0
3468
3838
3018
ENDCHAR

STARTCHAR a43
ENCODING 80
SWIDTH 923 0
DWIDTH 18 0
BBX 16 14 1 0
BITMAP
0180
0180
02C0
02C0
0460
FC7F
4006
301C
1838
1018
1398
27CC
2E6C
381C
ENDCHAR

STARTCHAR a44
ENCODING 81
SWIDTH 744 0
DWIDTH 15 0
BBX 13 13 1 0
BITMAP
0700
0700
6730
F778
7FF0
3FE0
1FC0
3FE0
7FF0
F778
6730
0700
0700
ENDCHAR

STARTCHAR a45
ENCODING 82
SWIDTH 723 0
DWIDTH 14 0
BBX 12 13 0 0
BITMAP
0600
0600
4620
E670
76E0
39C0
1080
39C0
76E0
E670
4620
0600
0600
ENDCHAR

STARTCHAR a46
ENCODING 83
SWIDTH 749 0
DWIDTH 15 0
BBX 13 13 1 0
BITMAP
0200
0200
2220
1240
0A80
0700
FFF8
0700
0A80
1240
2220
0200
0200
ENDCHAR

STARTCHAR a47
ENCODING 84
SWIDTH 790 0
DWIDTH 15 0
BBX 13 13 1 0
BITMAP
0200
2220
7270
3AE0
1FC0
0F80
FFF8
0F80
1FC0
3AE0
7270
2220
0200
ENDCHAR

STARTCHAR a48
ENCODING 85
SWIDTH 792 0
DWIDTH 16 0
BBX 14 14 1 0
BITMAP
0100
2300
3338
3B70
1FE0
0FC0
FFF8
7FFC
0FC0
1FE0
7B70
3330
0310
0200
ENDCHAR

STARTCHAR a49
ENCODING 86
SWIDTH 695 0
DWIDTH 13 0
BBX 11 13 1 0
BITMAP
0400
0400
0E00
EEE0
7FC0
7FC0
1F00
7FC0
7FC0
EEE0
0E00
0400
0400
ENDCHAR

STARTCHAR a50
ENCODING 87
SWIDTH 776 0
DWIDTH 15 0
BBX 13 13 1 0
BITMAP
0880
0880
0D80
0D80
FFF8
3FE0
0F80
3FE0
FFF8
0D80
0D80
0880
0880
ENDCHAR

STARTCHAR a51
ENCODING 88
SWIDTH 768 0
DWIDTH 14 0
BBX 13 13 0 0
BITMAP
0880
0D80
0F80
0F80
FFF8
7FF0
3FE0
7FF0
FFF8
0F80
0F80
0D80
0880
ENDCHAR

STARTCHAR a52
ENCODING 89
SWIDTH 792 0
DWIDTH 15 0
BBX 13 13 1 0
BITMAP
0200
1240
0A80
4A90
3760
0A80
FFF8
0A80
3760
4A90
0A80
1240
0200
ENDCHAR

STARTCHAR a53
ENCODING 90
SWIDTH 759 0
DWIDTH 15 0
BBX 13 13 1 0
BITMAP
0200
0A80
2AA0
1740
6AB0
1740
FFF8
1740
6AB0
1740
2AA0
0A80
0200
ENDCHAR

STARTCHAR a54
ENCODING 91
SWIDTH 700 0
DWIDTH 14 0
BBX 12 13 1 0
BITMAP
0600
0600
4620
E670
F0F0
36C0
0F00
36C0
F0F0
E670
4620
0600
0600
ENDCHAR

STARTCHAR a55
ENCODING 92
SWIDTH 708 0
DWIDTH 14 0
BBX 12 13 1 0
BITMAP
0600
0600
4620
E670
FFF0
39C0
1080
39C0
FFF0
E670
4620
0600
0600
ENDCHAR

STARTCHAR a56
ENCODING 93
SWIDTH 682 0
DWIDTH 15 0
BBX 13 13 1 0
BITMAP
0700
0700
6730
F778
7AF0
3FE0
0700
3FE0
7AF0
F778
6730
0700
0700
ENDCHAR

STARTCHAR a57
ENCODING 94
SWIDTH 696 0
DWIDTH 14 0
BBX 12 13 1 0
BITMAP
0600
0900
E970
F9F0
F9F0
7DE0
7FE0
C630
8F10
9F90
FFF0
0F00
0600
ENDCHAR

STARTCHAR a58
ENCODING 95
SWIDTH 813 0
DWIDTH 16 0
BBX 14 13 1 0
BITMAP
0780
0FC0
0FC0
7FF8
FCFC
F87C
F87C
7878
1CE0
3FF0
3FF0
3FF0
1CE0
ENDCHAR

STARTCHAR a59
ENCODING 96
SWIDTH 802 0
DWIDTH 16 0
BBX 14 13 1 0
BITMAP
0780
0CC0
0840
7978
C30C
8FC4
C78C
7798
3330
2490
2310
33B0
1CE0
ENDCHAR

STARTCHAR a60
ENCODING 97
SWIDTH 789 0
DWIDTH 16 0
BBX 13 13 1 0
BITMAP
0700
3760
7DF0
6DB0
3760
F8F8
C898
F8F8
3760
65B0
7DF0
3760
0700
ENDCHAR

STARTCHAR a61
ENCODING 98
SWIDTH 789 0
DWIDTH 15 0
BBX 13 13 1 0
BITMAP
0700
1DC0
3DE0
6730
68B0
F078
9048
F078
68B0
6730
3DE0
1DC0
0700
ENDCHAR

STARTCHAR a62
ENCODING 99
SWIDTH 707 0
DWIDTH 14 0
BBX 12 13 1 0
BITMAP
0600
0F00
EB70
BB90
9B30
4F60
7FE0
6F20
CD90
9DD0
FDF0
0F00
0600
ENDCHAR

STARTCHAR a63
ENCODING 100
SWIDTH 687 0
DWIDTH 13 0
BBX 11 13 1 0
BITMAP
0400
1500
2E80
A4A0
75C0
D560
0E00
D560
75C0
A4A0
2E80
1500
0400
ENDCHAR

STARTCHAR a64
ENCODING 101
SWIDTH 696 0
DWIDTH 13 0
BBX 11 13 1 0
BITMAP
0400
1500
1F00
AEA0
75C0
F5E0
0E00
F5E0
75C0
AEA0
1F00
1500
0400
ENDCHAR

STARTCHAR a65
ENCODING 102
SWIDTH 689 0
DWIDTH 13 0
BBX 11 13 1 0
BITMAP
0400
1F00
2E80
E4E0
75C0
FFE0
0E00
FFE0
75C0
E4E0
2E80
1F00
0400
ENDCHAR

STARTCHAR a66
ENCODING 103
SWIDTH 786 0
DWIDTH 14 0
BBX 12 12 1 0
BITMAP
0600
C630
6660
37C0
1980
F6F0
F6F0
1980
36C0
6660
C630
0600
ENDCHAR

STARTCHAR a67
ENCODING 104
SWIDTH 787 0
DWIDTH 15 0
BBX 13 13 1 0
BITMAP
0200
4710
6730
3760
1AC0
7770
FFF8
7770
0A80
1FC0
3760
6730
0200
ENDCHAR

STARTCHAR a68
ENCODING 105
SWIDTH 688 0
DWIDTH 13 0
BBX 11 12 1 0
BITMAP
0E00
0E00
EEE0
E4E0
F5E0
0E00
0E00
F5E0
E4E0
EEE0
0E00
0E00
ENDCHAR

STARTCHAR a69
ENCODING 106
SWIDTH 791 0
DWIDTH 15 0
BBX 12 12 1 0
BITMAP
0600
6660
76E0
36C0
1980
F6F0
F6F0
1980
36C0
76E0
6660
0600
ENDCHAR

STARTCHAR a70
ENCODING 107
SWIDTH 785 0
DWIDTH 15 0
BBX 12 12 1 0
BITMAP
0600
6660
76E0
36C0
1F80
FFF0
FFF0
1F80
36C0
76E0
6660
0600
ENDCHAR

STARTCHAR a71
ENCODING 108
SWIDTH 791 0
DWIDTH 15 0
BBX 13 13 1 0
BITMAP
0F80
3FE0
7FF0
7FF0
FFF8
FFF8
FFF8
FFF8
FFF8
7FF0
7FF0
3FE0
0F80
ENDCHAR

STARTCHAR a72
ENCODING 109
SWIDTH 873 0
DWIDTH 17 0
BBX 15 13 1 0
BITMAP
0FE0
38F8
603C
401C
C01E
800E
800E
800E
C01E
401C
603C
38F8
0FE0
ENDCHAR

STARTCHAR a73
ENCODING 110
SWIDTH 761 0
DWIDTH 15 0
BBX 13 13 1 0
BITMAP
FFF8
FFF8
FFF8
FFF8
FFF8
FFF8
FFF8
FFF8
FFF8
FFF8
FFF8
FFF8
FFF8
ENDCHAR

STARTCHAR a74
ENCODING 111
SWIDTH 762 0
DWIDTH 15 0
BBX 13 13 1 0
BITMAP
FFE0
8020
8038
8038
8038
8038
8038
8038
8038
8038
FFF8
3FF8
3FF8
ENDCHAR

STARTCHAR a203
ENCODING 112
SWIDTH 762 0
DWIDTH 15 0
BBX 13 13 1 0
BITMAP
3FF8
3FF8
FFF8
8038
8038
8038
8038
8038
8038
8038
8038
8020
FFE0
ENDCHAR

STARTCHAR a75
ENCODING 113
SWIDTH 759 0
DWIDTH 15 0
BBX 13 13 1 0
BITMAP
FFE0
8030
8038
8038
8038
8038
8038
8038
8038
8038
FFF8
FFF8
7FF8
ENDCHAR

STARTCHAR a204
ENCODING 114
SWIDTH 759 0
DWIDTH 15 0
BBX 13 13 1 0
BITMAP
7FF8
FFF8
FFF8
8038
8038
8038
8038
8038
8038
8038
8038
8030
FFE0
ENDCHAR

STARTCHAR a76
ENCODING 115
SWIDTH 892 0
DWIDTH 16 0
BBX 14 13 1 0
BITMAP
0300
0300
0780
0780
0FC0
0FC0
1FE0
1FE0
3FF0
3FF0
7FF8
7FF8
FFFC
ENDCHAR

STARTCHAR a77
ENCODING 116
SWIDTH 892 0
DWIDTH 16 0
BBX 14 13 1 0
BITMAP
FFFC
7FF8
7FF8
3FF0
3FF0
1FE0
1FE0
0FC0
0FC0
0780
0780
0300
0300
ENDCHAR

STARTCHAR a78
ENCODING 117
SWIDTH 788 0
DWIDTH 15 0
BBX 13 13 1 0
BITMAP
0200
0700
0F80
1FC0
3FE0
7FF0
FFF8
7FF0
3FE0
1FC0
0F80
0700
0200
ENDCHAR

STARTCHAR a79
ENCODING 118
SWIDTH 784 0
DWIDTH 15 0
BBX 13 13 1 0
BITMAP
0200
0700
0F80
0F80
3760
7AF0
FDF8
7AF0
3760
0F80
0F80
0700
0200
ENDCHAR

STARTCHAR a81
ENCODING 119
SWIDTH 438 0
DWIDTH 9 0
BBX 7 14 1 -1
BITMAP
E0
F8
FC
FC
FE
FE
FE
FE
FE
FC
FC
F8
E0
00
ENDCHAR

STARTCHAR a82
ENCODING 120
SWIDTH 138 0
DWIDTH 3 0
BBX 1 13 1 0
BITMAP
80
80
80
80
80
80
80
80
80
80
80
80
80
ENDCHAR

STARTCHAR a83
ENCODING 121
SWIDTH 277 0
DWIDTH 6 0
BBX 4 13 1 0
BITMAP
F0
F0
F0
F0
F0
F0
F0
F0
F0
F0
F0
F0
F0
ENDCHAR

STARTCHAR a84
ENCODING 122
SWIDTH 415 0
DWIDTH 8 0
BBX 6 13 1 0
BITMAP
FC
FC
FC
FC
FC
FC
FC
FC
FC
FC
FC
FC
FC
ENDCHAR

STARTCHAR a97
ENCODING 123
SWIDTH 392 0
DWIDTH 8 0
BBX 6 8 1 5
BITMAP
3C
70
40
F8
FC
FC
FC
78
ENDCHAR

STARTCHAR a98
ENCODING 124
SWIDTH 392 0
DWIDTH 8 0
BBX 6 8 1 5
BITMAP
78
FC
FC
FC
7C
08
38
F0
ENDCHAR

STARTCHAR a99
ENCODING 125
SWIDTH 668 0
DWIDTH 13 0
BBX 11 8 1 5
BITMAP
3DE0
7380
4200
F780
FFC0
FFC0
FFC0
7380
ENDCHAR

STARTCHAR a100
ENCODING 126
SWIDTH 668 0
DWIDTH 13 0
BBX 11 8 1 5
BITMAP
39C0
7FE0
7FE0
7FE0
3DE0
0C40
39C0
F780
ENDCHAR

STARTCHAR a101
ENCODING 161
SWIDTH 732 0
DWIDTH 13 0
BBX 11 19 1 -4
BITMAP
0100
0100
3FE0
7900
F900
F900
F900
F900
F900
7900
3F00
0100
0100
0100
2100
7300
7200
6600
3C00
ENDCHAR

STARTCHAR a102
ENCODING 162
SWIDTH 544 0
DWIDTH 9 0
BBX 7 13 1 0
BITMAP
7C
FE
FE
FE
FE
7C
38
10
38
7C
7C
7C
38
ENDCHAR

STARTCHAR a103
ENCODING 163
SWIDTH 544 0
DWIDTH 11 0
BBX 9 13 1 0
BITMAP
7700
FF80
FF80
FF80
7F00
3E00
1C00
0800
1C00
3E00
3E00
3E00
1C00
ENDCHAR

STARTCHAR a104
ENCODING 164
SWIDTH 910 0
DWIDTH 16 0
BBX 14 11 1 1
BITMAP
3870
7CF8
FFFC
FFFC
FFFC
FFFC
7FF8
3FF0
0FC0
0780
0300
ENDCHAR

STARTCHAR a106
ENCODING 165
SWIDTH 667 0
DWIDTH 13 0
BBX 11 13 1 0
BITMAP
7800
FC00
FE00
FE00
FF00
7FC0
3FE0
7FC0
FF00
FE00
FE00
FC00
7800
ENDCHAR

STARTCHAR a107
ENCODING 166
SWIDTH 760 0
DWIDTH 14 0
BBX 12 13 1 0
BITMAP
3630
7D30
C7E0
8200
1AC0
3DE0
3FE0
3FE0
3FC0
3F80
1E60
0E60
03C0
ENDCHAR

STARTCHAR a108
ENCODING 167
SWIDTH 760 0
DWIDTH 15 0
BBX 13 8 1 3
BITMAP
6000
4380
67C0
37E0
7BE8
97E8
E7F0
73C0
ENDCHAR

STARTCHAR a112
ENCODING 168
SWIDTH 776 0
DWIDTH 15 0
BBX 13 13 1 0
BITMAP
0700
0F80
0F80
0F80
6730
FFF8
FFF8
FFF8
FFF8
7270
0700
0F80
3FE0
ENDCHAR

STARTCHAR a111
ENCODING 169
SWIDTH 595 0
DWIDTH 13 0
BBX 11 13 1 0
BITMAP
0400
0E00
0E00
1F00
3F80
7FC0
FFE0
7FC0
3F80
1F00
0E00
0E00
0400
ENDCHAR

STARTCHAR a110
ENCODING 170
SWIDTH 694 0
DWIDTH 13 0
BBX 11 13 1 0
BITMAP
71C0
FBE0
FBE0
FFE0
FFE0
7FC0
7FC0
3F80
1F00
0E00
0E00
0400
0400
ENDCHAR

STARTCHAR a109
ENCODING 171
SWIDTH 626 0
DWIDTH 13 0
BBX 11 13 1 0
BITMAP
0400
0400
0E00
1F00
3F80
7FC0
FFE0
FFE0
FFE0
75C0
0400
1F00
7FC0
ENDCHAR

STARTCHAR a120
ENCODING 172
SWIDTH 788 0
DWIDTH 15 0
BBX 13 13 1 0
BITMAP
0F80
3860
6330
4F10
C318
8308
8308
8308
C318
4310
67B0
3060
0F80
ENDCHAR

STARTCHAR a121
ENCODING 173
SWIDTH 788 0
DWIDTH 15 0
BBX 13 13 1 0
BITMAP
0F80
3860
67B0
4CD0
CCD8
81C8
8388
8748
CC58
4FD0
6FD0
3060
0F80
ENDCHAR

STARTCHAR a122
ENCODING 174
SWIDTH 788 0
DWIDTH 15 0
BBX 13 13 1 0
BITMAP
0F80
3060
6730
4D90
CDD8
8388
8708
8188
CDD8
4D90
6730
38E0
0F80
ENDCHAR

STARTCHAR a123
ENCODING 175
SWIDTH 788 0
DWIDTH 15 0
BBX 13 13 1 0
BITMAP
0F80
38E0
6330
4710
C718
8F08
8B08
9B08
DFD8
4310
6FB0
3060
0F80
ENDCHAR

STARTCHAR a124
ENCODING 176
SWIDTH 788 0
DWIDTH 15 0
BBX 13 13 1 0
BITMAP
0F80
3060
6FB0
4F90
C818
8F88
8FC8
80C8
CCD8
4DD0
6730
38E0
0F80
ENDCHAR

STARTCHAR a125
ENCODING 177
SWIDTH 788 0
DWIDTH 15 0
BBX 13 13 1 0
BITMAP
0F80
3060
67B0
4CD0
CC18
8F88
8CC8
8CC8
CCD8
4790
6330
3060
0F80
ENDCHAR

STARTCHAR a126
ENCODING 178
SWIDTH 788 0
DWIDTH 15 0
BBX 13 13 1 0
BITMAP
0FC0
3020
6FD0
4FD0
C998
8108
8308
8208
C618
4610
6630
38E0
0F80
ENDCHAR

STARTCHAR a127
ENCODING 179
SWIDTH 788 0
DWIDTH 15 0
BBX 13 13 1 0
BITMAP
0F80
3860
67B0
4D90
CC98
8F88
8708
8D88
C998
4F90
6730
38E0
0F80
ENDCHAR

STARTCHAR a128
ENCODING 180
SWIDTH 788 0
DWIDTH 15 0
BBX 13 13 1 0
BITMAP
0F80
3060
6330
4790
CCD8
8CC8
8CC8
87C8
C0D8
4C90
6730
30E0
0F80
ENDCHAR

STARTCHAR a129
ENCODING 181
SWIDTH 788 0
DWIDTH 15 0
BBX 13 13 1 0
BITMAP
0F80
3060
49B0
7BD0
DAD8
9AC8
9AC8
9AC8
DAD8
5AD0
5D90
2060
1FC0
ENDCHAR

STARTCHAR a130
ENCODING 182
SWIDTH 788 0
DWIDTH 15 0
BBX 13 13 1 0
BITMAP
0F80
3FE0
7CF0
70F0
FCF8
FCF8
FCF8
FCF8
FCF8
7CF0
7870
3FE0
0F80
ENDCHAR

STARTCHAR a131
ENCODING 183
SWIDTH 788 0
DWIDTH 15 0
BBX 13 13 1 0
BITMAP
0F80
3FE0
7870
7330
F338
FE38
FC78
F9F8
F3B8
7230
7030
3FE0
0F80
ENDCHAR

STARTCHAR a132
ENCODING 184
SWIDTH 788 0
DWIDTH 15 0
BBX 13 13 1 0
BITMAP
0F80
3FE0
78F0
7270
F278
FC78
F8F8
FE78
F238
7270
78F0
3FE0
0F80
ENDCHAR

STARTCHAR a133
ENCODING 185
SWIDTH 788 0
DWIDTH 15 0
BBX 13 13 1 0
BITMAP
0F80
3FE0
7CF0
7CF0
F8F8
F0F8
F4F8
E4F8
E038
7CF0
7070
3FE0
0F80
ENDCHAR

STARTCHAR a134
ENCODING 186
SWIDTH 788 0
DWIDTH 15 0
BBX 13 13 1 0
BITMAP
0F80
3FE0
7070
7070
F7F8
F078
F038
FF38
F338
7230
78F0
3FE0
0F80
ENDCHAR

STARTCHAR a135
ENCODING 187
SWIDTH 788 0
DWIDTH 15 0
BBX 13 13 1 0
BITMAP
0F80
3FE0
7870
7270
E7F8
E478
E238
E738
E738
7270
78F0
3FE0
0F80
ENDCHAR

STARTCHAR a136
ENCODING 188
SWIDTH 788 0
DWIDTH 15 0
BBX 13 13 1 0
BITMAP
0F80
3FE0
7030
7070
F678
FEF8
FCF8
FDF8
F9F8
79F0
79F0
3FE0
0F80
ENDCHAR

STARTCHAR a137
ENCODING 189
SWIDTH 788 0
DWIDTH 15 0
BBX 13 13 1 0
BITMAP
0F80
3FE0
78F0
7270
F378
F078
F8F8
F278
F678
7270
78F0
3FE0
0F80
ENDCHAR

STARTCHAR a138
ENCODING 190
SWIDTH 788 0
DWIDTH 15 0
BBX 13 13 1 0
BITMAP
0F80
3FE0
7870
7330
F338
F338
F838
FD38
FF38
7270
78F0
3FE0
0F80
ENDCHAR

STARTCHAR a139
ENCODING 191
SWIDTH 788 0
DWIDTH 15 0
BBX 13 13 1 0
BITMAP
0F80
3FE0
7630
4490
E498
E498
E498
E498
E498
6498
4230
3FE0
0F80
ENDCHAR

STARTCHAR a140
ENCODING 192
SWIDTH 788 0
DWIDTH 15 0
BBX 13 13 1 0
BITMAP
0F80
38E0
6330
4F10
C318
8308
8308
8308
C318
4310
6330
38E0
0F80
ENDCHAR

STARTCHAR a141
ENCODING 193
SWIDTH 788 0
DWIDTH 15 0
BBX 13 13 1 0
BITMAP
0F80
3060
67B0
4CD0
CCD8
80C8
8188
8308
C618
4CD0
6FB0
3060
0F80
ENDCHAR

STARTCHAR a142
ENCODING 194
SWIDTH 788 0
DWIDTH 15 0
BBX 13 13 1 0
BITMAP
0F80
30E0
6730
4D90
CD98
8188
8708
8188
CD98
4D90
6730
38E0
0F80
ENDCHAR

STARTCHAR a143
ENCODING 195
SWIDTH 788 0
DWIDTH 15 0
BBX 13 13 1 0
BITMAP
0F80
38E0
6330
4310
C718
8F08
8B08
9B08
DFD8
4310
6330
38E0
0F80
ENDCHAR

STARTCHAR a144
ENCODING 196
SWIDTH 788 0
DWIDTH 15 0
BBX 13 13 1 0
BITMAP
0F80
3060
6FB0
4C10
CC18
8F88
8CC8
80C8
CCD8
4CD0
67B0
3860
0F80
ENDCHAR

STARTCHAR a145
ENCODING 197
SWIDTH 788 0
DWIDTH 15 0
BBX 13 13 1 0
BITMAP
0F80
3060
67B0
4D90
CC18
8F08
8D88
8D88
CD98
4D90
6730
3060
0F80
ENDCHAR

STARTCHAR a146
ENCODING 198
SWIDTH 788 0
DWIDTH 15 0
BBX 13 13 1 0
BITMAP
0F80
3060
6FD0
4FD0
C0D8
8188
8188
8308
C318
4610
6630
38E0
0F80
ENDCHAR

STARTCHAR a147
ENCODING 199
SWIDTH 788 0
DWIDTH 15 0
BBX 13 13 1 0
BITMAP
0F80
3060
6730
4D90
CD98
8D88
8708
8D88
CD98
4D90
6730
3060
0F80
ENDCHAR

STARTCHAR a148
ENCODING 200
SWIDTH 788 0
DWIDTH 15 0
BBX 13 13 1 0
BITMAP
0F80
3060
6730
4D90
CD98
8D88
8D88
8788
C198
4D90
6730
3060
0F80
ENDCHAR

STARTCHAR a149
ENCODING 201
SWIDTH 788 0
DWIDTH 15 0
BBX 13 13 1 0
BITMAP
0F80
3060
69B0
5AD0
FAD8
9AC8
9AC8
9AC8
DAD8
5AD0
59B0
2060
0F80
ENDCHAR

STARTCHAR a150
ENCODING 202
SWIDTH 788 0
DWIDTH 15 0
BBX 13 13 1 0
BITMAP
0F80
3FE0
7CF0
70F0
FCF8
FCF8
FCF8
FCF8
FCF8
7CF0
7CF0
3FE0
0F80
ENDCHAR

STARTCHAR a151
ENCODING 203
SWIDTH 788 0
DWIDTH 15 0
BBX 13 13 1 0
BITMAP
0F80
3FE0
7870
7330
F338
FF38
FE78
FCF8
F9F8
7330
7030
3FE0
0F80
ENDCHAR

STARTCHAR a152
ENCODING 204
SWIDTH 788 0
DWIDTH 15 0
BBX 13 13 1 0
BITMAP
0F80
3FE0
78F0
7270
F278
FE78
FCF8
FE78
F278
7270
78F0
3FE0
0F80
ENDCHAR

STARTCHAR a153
ENCODING 205
SWIDTH 788 0
DWIDTH 15 0
BBX 13 13 1 0
BITMAP
0F80
3FE0
7CF0
7CF0
F8F8
F4F8
F4F8
ECF8
E038
7CF0
7CF0
3FE0
0F80
ENDCHAR

STARTCHAR a154
ENCODING 206
SWIDTH 788 0
DWIDTH 15 0
BBX 13 13 1 0
BITMAP
0F80
3FE0
7030
73F0
F3F8
F078
F338
FFB8
F338
7330
7870
3FE0
0F80
ENDCHAR

STARTCHAR a155
ENCODING 207
SWIDTH 788 0
DWIDTH 15 0
BBX 13 13 1 0
BITMAP
0F80
3FE0
7870
7270
F3F8
F0F8
F278
F278
F278
7270
78F0
3FE0
0F80
ENDCHAR

STARTCHAR a156
ENCODING 208
SWIDTH 788 0
DWIDTH 15 0
BBX 13 13 1 0
BITMAP
0F80
3FE0
7030
7030
FF38
FF78
FE78
FCF8
FCF8
79F0
79F0
3FE0
0F80
ENDCHAR

STARTCHAR a157
ENCODING 209
SWIDTH 788 0
DWIDTH 15 0
BBX 13 13 1 0
BITMAP
0F80
3FE0
78F0
7270
F278
F278
F8F8
F278
F278
7270
78F0
3FE0
0F80
ENDCHAR

STARTCHAR a158
ENCODING 210
SWIDTH 788 0
DWIDTH 15 0
BBX 13 13 1 0
BITMAP
0F80
3FE0
78F0
7270
F278
F278
F278
F878
FF78
7270
78F0
3FE0
0F80
ENDCHAR

STARTCHAR a159
ENCODING 211
SWIDTH 788 0
DWIDTH 15 0
BBX 13 13 1 0
BITMAP
0F80
3FE0
6630
4490
E498
E498
E498
E498
E498
6490
6630
3FE0
0F80
ENDCHAR

STARTCHAR a160
ENCODING 212
SWIDTH 894 0
DWIDTH 18 0
BBX 16 11 1 1
BITMAP
01E0
00F0
0078
003C
FFFE
FFFF
FFFE
003C
0078
00F0
01E0
ENDCHAR

STARTCHAR a161
ENCODING 213
SWIDTH 838 0
DWIDTH 15 0
BBX 13 7 1 3
BITMAP
0040
0060
0070
FFF8
0070
0060
0040
ENDCHAR

STARTCHAR a163
ENCODING 214
SWIDTH 1016 0
DWIDTH 18 0
BBX 16 7 1 3
BITMAP
1008
300C
700E
FFFF
700E
300C
1008
ENDCHAR

STARTCHAR a164
ENCODING 215
SWIDTH 458 0
DWIDTH 9 0
BBX 7 15 1 -1
BITMAP
10
38
7C
FE
10
10
10
10
10
10
10
FE
7C
38
10
ENDCHAR

STARTCHAR a196
ENCODING 216
SWIDTH 733 0
DWIDTH 12 0
BBX 10 10 1 1
BITMAP
C000
E000
7000
3800
1C40
0EC0
07C0
03C0
07C0
0FC0
ENDCHAR

STARTCHAR a165
ENCODING 217
SWIDTH 924 0
DWIDTH 17 0
BBX 15 8 1 2
BITMAP
00C0
00E0
FC78
FFFE
FFFE
FC78
00E0
00C0
ENDCHAR

STARTCHAR a192
ENCODING 218
SWIDTH 927 0
DWIDTH 12 0
BBX 10 10 1 1
BITMAP
0FC0
07C0
03C0
07C0
0EC0
1C40
3800
7000
E000
C000
ENDCHAR

STARTCHAR a166
ENCODING 219
SWIDTH 918 0
DWIDTH 17 0
BBX 15 7 1 3
BITMAP
0600
0780
03F0
FFFE
03F0
0780
0600
ENDCHAR

STARTCHAR a167
ENCODING 220
SWIDTH 927 0
DWIDTH 17 0
BBX 15 13 1 0
BITMAP
0040
00E0
00F0
0078
003C
FFFE
FFFE
FFFE
003C
0078
00F0
00E0
0040
ENDCHAR

STARTCHAR a168
ENCODING 221
SWIDTH 928 0
DWIDTH 17 0
BBX 15 7 1 3
BITMAP
0010
0018
001C
FFFE
001C
0018
0010
ENDCHAR

STARTCHAR a169
ENCODING 222
SWIDTH 928 0
DWIDTH 17 0
BBX 15 8 1 3
BITMAP
0010
0018
001C
FFFE
FFFE
001C
0018
0010
ENDCHAR

STARTCHAR a170
ENCODING 223
SWIDTH 834 0
DWIDTH 16 0
BBX 14 7 1 3
BITMAP
0020
0030
B7F8
B7FC
B7F8
0030
0020
ENDCHAR

STARTCHAR a171
ENCODING 224
SWIDTH 803 0
DWIDTH 16 0
BBX 14 9 1 2
BITMAP
0040
0060
B7F0
B7F8
B7FC
B7F8
B7F0
0060
0040
ENDCHAR

STARTCHAR a172
ENCODING 225
SWIDTH 828 0
DWIDTH 16 0
BBX 14 9 1 2
BITMAP
0040
0060
FFF0
FFF8
FFFC
FFF8
FFF0
0060
0040
ENDCHAR

STARTCHAR a173
ENCODING 226
SWIDTH 862 0
DWIDTH 18 0
BBX 16 10 1 1
BITMAP
F000
5E00
23C0
1078
080F
0FFF
1FF8
3FC0
7E00
F000
ENDCHAR

STARTCHAR a162
ENCODING 227
SWIDTH 838 0
DWIDTH 18 0
BBX 16 10 1 2
BITMAP
F000
7E00
3FC0
1FF8
0FFF
080F
1078
23C0
5E00
F000
ENDCHAR

STARTCHAR a174
ENCODING 228
SWIDTH 847 0
DWIDTH 16 0
BBX 14 13 1 0
BITMAP
C000
F000
7C00
3F00
3FC0
1FF0
0FFC
1FF0
3FC0
3F00
7C00
F000
C000
ENDCHAR

STARTCHAR a175
ENCODING 229
SWIDTH 930 0
DWIDTH 17 0
BBX 15 12 1 1
BITMAP
C000
C000
C040
E060
FFF0
FFF8
FFFE
FFFE
FFF8
7FF0
0060
0040
ENDCHAR

STARTCHAR a176
ENCODING 230
SWIDTH 861 0
DWIDTH 17 0
BBX 15 12 1 0
BITMAP
0040
0060
7FF0
FFF8
FFFE
FFFE
FFF8
FFF0
E060
C040
C000
C000
ENDCHAR

STARTCHAR a177
ENCODING 231
SWIDTH 463 0
DWIDTH 9 0
BBX 7 14 1 0
BITMAP
20
30
F0
F8
FC
FC
FE
FE
FC
FC
F8
F0
30
20
ENDCHAR

STARTCHAR a178
ENCODING 232
SWIDTH 883 0
DWIDTH 16 0
BBX 14 11 1 1
BITMAP
0100
0180
FFC0
FFE0
FFF8
FFFC
FFF8
FFE0
FFC0
0180
0100
ENDCHAR

STARTCHAR a179
ENCODING 233
SWIDTH 836 0
DWIDTH 17 0
BBX 15 13 1 0
BITMAP
0180
01C0
01E0
0170
FF38
801C
800E
801C
FF38
0170
01E0
01C0
0180
ENDCHAR

STARTCHAR a193
ENCODING 234
SWIDTH 836 0
DWIDTH 16 0
BBX 14 13 1 0
BITMAP
0300
0380
03C0
0360
FF30
C018
C00C
C018
FF30
0360
03C0
0380
0300
ENDCHAR

STARTCHAR a180
ENCODING 235
SWIDTH 797 0
DWIDTH 16 0
BBX 14 10 1 2
BITMAP
0020
0070
1FD8
300C
6004
C00C
FF3C
FFF0
03C0
0300
ENDCHAR

STARTCHAR a199
ENCODING 236
SWIDTH 797 0
DWIDTH 16 0
BBX 14 10 1 2
BITMAP
0300
03C0
FFF0
FF3C
C00C
6004
300C
1FD8
0070
0020
ENDCHAR

STARTCHAR a181
ENCODING 237
SWIDTH 626 0
DWIDTH 12 0
BBX 10 12 1 0
BITMAP
0800
0C00
0A00
F900
8080
8040
8040
80C0
F980
FB00
0E00
0C00
ENDCHAR

STARTCHAR a200
ENCODING 238
SWIDTH 626 0
DWIDTH 12 0
BBX 10 12 1 0
BITMAP
0C00
0E00
FB00
F980
80C0
8040
8040
8080
F900
0A00
0C00
0800
ENDCHAR

STARTCHAR a182
ENCODING 239
SWIDTH 874 0
DWIDTH 16 0
BBX 14 11 1 1
BITMAP
0080
00C0
FFA0
4010
2008
1004
200C
4018
FFB0
FFE0
00C0
ENDCHAR

STARTCHAR a201
ENCODING 241
SWIDTH 874 0
DWIDTH 16 0
BBX 14 11 1 1
BITMAP
00C0
FFE0
FFB0
4018
200C
1004
2008
4010
FFA0
00C0
0080
ENDCHAR

STARTCHAR a183
ENCODING 242
SWIDTH 760 0
DWIDTH 14 0
BBX 12 13 1 0
BITMAP
1F00
7FC0
FDE0
FCE0
0070
0030
0010
0030
0070
FCE0
FDE0
7FC0
1F00
ENDCHAR

STARTCHAR a184
ENCODING 243
SWIDTH 946 0
DWIDTH 17 0
BBX 15 7 1 3
BITMAP
FE10
5518
2A9C
1FFE
2A9C
5518
FE10
ENDCHAR

STARTCHAR a197
ENCODING 244
SWIDTH 771 0
DWIDTH 14 0
BBX 12 12 1 1
BITMAP
0800
0C00
0E00
0F00
F700
7B00
3D00
1F90
01F0
00F0
00F0
01F0
ENDCHAR

STARTCHAR a185
ENCODING 245
SWIDTH 865 0
DWIDTH 15 0
BBX 13 5 1 4
BITMAP
FC20
7E30
01F8
7E30
FC20
ENDCHAR

STARTCHAR a194
ENCODING 246
SWIDTH 883 0
DWIDTH 14 0
BBX 12 12 1 1
BITMAP
01F0
00F0
00F0
01F0
1F90
3D00
7B00
F700
0F00
0E00
0C00
0800
ENDCHAR

STARTCHAR a198
ENCODING 247
SWIDTH 888 0
DWIDTH 16 0
BBX 14 14 1 0
BITMAP
0400
0600
0700
0780
0780
FF80
7F80
3F84
1FCC
00EC
007C
003C
00FC
01FC
ENDCHAR

STARTCHAR a186
ENCODING 248
SWIDTH 967 0
DWIDTH 18 0
BBX 16 9 1 2
BITMAP
FC30
FE38
7E1C
3F0E
3FFF
3F0E
7E1C
FE38
FC30
ENDCHAR

STARTCHAR a195
ENCODING 249
SWIDTH 872 0
DWIDTH 16 0
BBX 14 14 1 0
BITMAP
01FC
00FC
003C
007C
00EC
1FCC
3F84
7F80
FF80
0780
0780
0700
0600
0400
ENDCHAR

STARTCHAR a187
ENCODING 250
SWIDTH 831 0
DWIDTH 16 0
BBX 14 8 1 3
BITMAP
00C0
00E0
7C70
FFFC
FFFC
7C70
00E0
00C0
ENDCHAR

STARTCHAR a188
ENCODING 251
SWIDTH 873 0
DWIDTH 16 0
BBX 14 9 1 2
BITMAP
0020
3860
7C70
7F78
FFFC
7F78
7C70
3860
0020
ENDCHAR

STARTCHAR a189
ENCODING 252
SWIDTH 927 0
DWIDTH 17 0
BBX 15 8 1 2
BITMAP
FC10
FE18
7F1C
3FFE
3FFE
7F1C
FE18
FC10
ENDCHAR

STARTCHAR a190
ENCODING 253
SWIDTH 970 0
DWIDTH 17 0
BBX 15 10 1 1
BITMAP
7E30
FF38
FF38
FFBC
7FFE
7FFE
FFBC
FF38
FF38
7E30
ENDCHAR

STARTCHAR a191
ENCODING 254
SWIDTH 918 0
DWIDTH 17 0
BBX 15 9 1 2
BITMAP
0360
01B0
00D8
FFEC
0006
FFEC
00D8
01B0
0360
ENDCHAR
ENDFONT
